<?xml version="1.0" encoding="UTF-8" standalone="no"?>
<!-- Created with Inkscape (http://www.inkscape.org/) -->

<svg
   xmlns:dc="http://purl.org/dc/elements/1.1/"
   xmlns:cc="http://creativecommons.org/ns#"
   xmlns:rdf="http://www.w3.org/1999/02/22-rdf-syntax-ns#"
   xmlns:svg="http://www.w3.org/2000/svg"
   xmlns="http://www.w3.org/2000/svg"
   xmlns:sodipodi="http://sodipodi.sourceforge.net/DTD/sodipodi-0.dtd"
   xmlns:inkscape="http://www.inkscape.org/namespaces/inkscape"
   width="210mm"
   height="297mm"
   id="svg6245"
   version="1.1"
   inkscape:version="0.48.0 r9654"
   sodipodi:docname="chipcolour.svg"
   inkscape:export-filename="D:\Hackerspace\chiplogoColourSmall.png"
   inkscape:export-xdpi="199.88"
   inkscape:export-ydpi="199.88">
  <defs
     id="defs3" />
  <sodipodi:namedview
     inkscape:document-units="mm"
     id="base"
     pagecolor="#ffffff"
     bordercolor="#666666"
     borderopacity="1.0"
     inkscape:pageopacity="0.0"
     inkscape:pageshadow="2"
     inkscape:zoom="2"
     inkscape:cx="108.41307"
     inkscape:cy="701.73708"
     inkscape:current-layer="layer1"
     showgrid="false"
     inkscape:snap-global="true"
     inkscape:window-width="1680"
     inkscape:window-height="998"
     inkscape:window-x="-8"
     inkscape:window-y="-8"
     inkscape:window-maximized="1" />
  <metadata
     id="metadata4">
    <rdf:RDF>
      <cc:Work
         rdf:about="">
        <dc:format>image/svg+xml</dc:format>
        <dc:type
           rdf:resource="http://purl.org/dc/dcmitype/StillImage" />
        <dc:title />
      </cc:Work>
    </rdf:RDF>
  </metadata>
  <g
     inkscape:label="Layer 1"
     inkscape:groupmode="layer"
     id="layer1">
    <g
       id="g3776">
      <path
         sodipodi:nodetypes="czccczccc"
         inkscape:connector-curvature="0"
         id="rect6787-8-1"
         d="m 108.33724,447.5763 c 0,0 -6.86123,5.84015 -8.577532,9.41392 -1.716287,3.57376 -0.712699,15.10321 -0.712699,15.10321 l 1.955021,1.60003 -0.0562,17.88601 c 0,0 1.07441,4.0933 2.7758,4.31479 1.70139,0.2215 3.46292,-3.50499 3.46292,-3.50499 l 0.44942,-22.34063 z"
         style="fill:#808080;fill-opacity:1;stroke:#ffffff;stroke-width:3.73567224;stroke-miterlimit:4;stroke-opacity:1;stroke-dasharray:none" />
      <path
         sodipodi:nodetypes="cccc"
         inkscape:connector-curvature="0"
         id="rect6781-2"
         d="m 133.44987,460.36846 c 2.40149,-0.58518 29.28493,-18.74965 18.82152,20.89493 5.96882,-19.58863 -16.13401,-11.32034 -18.65606,-9.1766 z"
         style="fill:#000000;fill-opacity:1;stroke:#ffffff;stroke-width:3.73567224;stroke-miterlimit:4;stroke-opacity:1;stroke-dasharray:none" />
      <path
         sodipodi:nodetypes="zccz"
         inkscape:connector-curvature="0"
         id="rect6778-6"
         d="m 150.42848,468.06299 c 8.76803,3.52528 1.80657,13.24159 1.80657,13.24159 l -18.63014,-9.20088 c 0,0 8.05552,-7.56598 16.82357,-4.04071 z"
         style="fill:#000000;fill-opacity:1;stroke:#ffffff;stroke-width:3.73567224;stroke-miterlimit:4;stroke-opacity:1;stroke-dasharray:none" />
      <path
         sodipodi:nodetypes="ccccccccccc"
         inkscape:connector-curvature="0"
         id="rect6775-6"
         d="m 108.2288,448.2588 25.24355,12.04088 0.25841,11.85607 18.47177,9.1259 0.0446,-10.5218 27.21695,12.4002 3.48709,18.24115 -1.88644,10.90031 -71.27353,-34.96936 -5.39577,-14.0215 z"
         style="fill:#000000;fill-opacity:1;stroke:#ffffff;stroke-width:3.73567224;stroke-miterlimit:4;stroke-opacity:1;stroke-dasharray:none" />
      <path
         sodipodi:nodetypes="ccccccc"
         inkscape:connector-curvature="0"
         id="rect6784-9"
         d="m 179.46011,483.16179 151.94964,-186.3732 3.1106,15.21665 -2.52204,11.3492 -148.15012,186.91451 -0.90264,-8.85826 z"
         style="fill:#000000;fill-opacity:1;stroke:#ffffff;stroke-width:3.73567224;stroke-miterlimit:4;stroke-opacity:1;stroke-dasharray:none" />
      <path
         sodipodi:nodetypes="ccczccczccczc"
         inkscape:connector-curvature="0"
         id="rect6787-1"
         d="m 186.19631,501.58648 -0.0845,-5.12739 12.26669,-15.38676 c 0,0 7.13195,4.14829 9.53523,8.86307 2.40327,4.71477 1.38713,18.85228 1.38713,18.85228 l -2.64815,7.25087 c 1.37171,9.20075 1.89878,18.47146 2.52204,27.74249 0,0 -1.10983,4.12306 -2.77425,4.53967 -1.66441,0.4166 -4.28747,-2.52206 -4.28747,-2.52206 l -2.58509,-22.69839 -3.59391,-1.00882 c 0,0 -2.69463,-16.68399 -3.59392,-17.65429 -0.89929,-0.97032 -6.14385,-2.85067 -6.14385,-2.85067 z"
         style="fill:#808080;fill-opacity:1;stroke:#ffffff;stroke-width:3.73567224;stroke-miterlimit:4;stroke-opacity:1;stroke-dasharray:none" />
      <path
         sodipodi:nodetypes="ccczccczccczc"
         inkscape:connector-curvature="0"
         id="rect6787-9-4"
         d="m 205.92246,476.93124 -0.2094,-4.96078 12.30833,-15.22015 c 0,0 6.42388,3.48187 8.82715,8.19664 2.40328,4.71477 1.38714,18.85228 1.38714,18.85228 l -2.64815,7.25087 c 1.37172,9.20074 1.89878,18.47144 2.52204,27.7425 0,0 -1.10984,4.12306 -2.77424,4.53966 -1.66441,0.4166 -4.28748,-2.52206 -4.28748,-2.52206 l -2.58509,-22.69838 -3.59391,-1.00883 c 0,0 -2.69463,-16.68399 -3.59392,-17.6543 -0.89929,-0.9703 -5.35246,-2.51745 -5.35246,-2.51745 z"
         style="fill:#808080;fill-opacity:1;stroke:#ffffff;stroke-width:3.73567224;stroke-miterlimit:4;stroke-opacity:1;stroke-dasharray:none" />
      <path
         sodipodi:nodetypes="ccczccczccczc"
         inkscape:connector-curvature="0"
         id="rect6787-92-3"
         d="m 225.16312,452.67372 -0.0327,-5.16034 11.13349,-14.72249 c 0,0 5.90609,3.38961 8.11565,7.97944 2.20957,4.58983 1.27532,18.35271 1.27532,18.35271 l -2.4347,7.05874 c 1.26116,8.95694 1.74574,17.98198 2.31876,27.00734 0,0 -1.02038,4.01379 -2.55063,4.41936 -1.53025,0.40557 -3.94189,-2.45523 -3.94189,-2.45523 l -2.37674,-22.0969 -3.30423,-0.98208 c 0,0 -2.47743,-16.24188 -3.30423,-17.18647 -0.82681,-0.9446 -4.89817,-2.21408 -4.89817,-2.21408 z"
         style="fill:#808080;fill-opacity:1;stroke:#ffffff;stroke-width:3.73567224;stroke-miterlimit:4;stroke-opacity:1;stroke-dasharray:none" />
      <path
         sodipodi:nodetypes="ccczccczccczc"
         inkscape:connector-curvature="0"
         id="rect6787-4-4"
         d="m 243.15172,429.77863 -0.0269,-4.52517 11.43798,-14.74443 c 0,0 5.19371,3.05217 7.29258,7.74909 2.09887,4.69692 1.21144,18.78091 1.21144,18.78091 l -2.31273,7.22343 c 1.19797,9.16592 1.65828,18.40153 2.2026,27.63746 0,0 -0.96927,4.10745 -2.42286,4.52248 -1.45359,0.41503 -3.74441,-2.51251 -3.74441,-2.51251 l -2.25767,-22.61246 -3.13871,-1.005 c 0,0 -2.35331,-16.62082 -3.13869,-17.58746 -0.7854,-0.96664 -5.10269,-2.92634 -5.10269,-2.92634 z"
         style="fill:#808080;fill-opacity:1;stroke:#ffffff;stroke-width:3.73567224;stroke-miterlimit:4;stroke-opacity:1;stroke-dasharray:none" />
      <path
         sodipodi:nodetypes="cccczccc"
         inkscape:connector-curvature="0"
         id="rect6772-6"
         d="m 267.72692,273.62332 63.81196,23.26775 -152.07546,186.27096 -26.46065,-12.32943 c 0,0 4.05336,-9.49342 -3.67013,-12.22323 -7.72348,-2.72981 -15.79635,1.74853 -15.79635,1.74853 l -25.95454,-12.50106 z"
         style="fill:#000000;fill-opacity:1;stroke:#ffffff;stroke-width:3.73464567;stroke-miterlimit:4;stroke-opacity:1;stroke-dasharray:none" />
      <path
         inkscape:transform-center-x="0.53213686"
         inkscape:transform-center-y="32.396637"
         sodipodi:nodetypes="ccczccczccczc"
         inkscape:connector-curvature="0"
         id="rect6787-42-8"
         d="m 261.27382,407.64806 0.0494,-5.08342 11.31444,-13.95372 c 0,0 6.34142,3.95295 8.23701,8.57304 1.89561,4.62008 0.31327,18.10617 0.31327,18.10617 l -2.69123,6.82172 c 0.76685,8.86767 0.78386,17.76454 0.88587,26.66603 0,0 -1.18038,3.89672 -2.67142,4.22108 -1.49104,0.32436 -3.66685,-2.60558 -3.66685,-2.60558 l -1.18577,-21.84096 -3.12718,-1.1262 c 0,0 -1.57369,-16.08927 -2.32145,-17.05818 -0.74776,-0.96891 -5.13612,-2.71998 -5.13612,-2.71998 z"
         style="fill:#808080;fill-opacity:1;stroke:#ffffff;stroke-width:3.73567224;stroke-miterlimit:4;stroke-opacity:1;stroke-dasharray:none" />
      <path
         inkscape:transform-center-x="0.5321374"
         inkscape:transform-center-y="32.396637"
         sodipodi:nodetypes="ccczccczccczc"
         inkscape:connector-curvature="0"
         id="rect6787-42-5-4"
         d="m 277.93153,386.60293 -0.0338,-5.08342 11.14783,-13.53719 c 0,0 5.92492,3.36982 7.82052,7.9899 1.8956,4.62008 0.31324,18.10618 0.31324,18.10618 l -2.69121,6.82171 c 0.76684,8.86768 0.78386,17.76455 0.88587,26.66604 0,0 -1.18037,3.89672 -2.67141,4.22108 -1.49105,0.32436 -3.66687,-2.60558 -3.66687,-2.60558 l -1.18575,-21.84096 -3.1272,-1.12621 c 0,0 -1.57369,-16.08926 -2.32144,-17.05817 -0.74776,-0.96891 -4.46971,-2.55338 -4.46971,-2.55338 z"
         style="fill:#808080;fill-opacity:1;stroke:#ffffff;stroke-width:3.73567224;stroke-miterlimit:4;stroke-opacity:1;stroke-dasharray:none" />
      <path
         inkscape:transform-center-x="0.61342819"
         inkscape:transform-center-y="32.69618"
         sodipodi:nodetypes="ccczccczccczcc"
         inkscape:connector-curvature="0"
         id="rect6787-42-53-3"
         d="m 294.2799,366.61941 0.0203,-5.20251 10.63752,-13.34247 c 0,0 4.664,3.7187 6.21793,8.39902 1.55394,4.68031 -0.006,18.25068 -0.006,18.25068 l -2.40872,6.83999 c 0.52267,8.94634 0.40256,17.91245 0.35519,26.88432 0,0 -1.07017,3.91175 -2.35238,4.21944 -1.28223,0.30769 -3.10179,-2.67298 -3.10179,-2.67298 l -0.68515,-22.02566 -2.66187,-1.17518 c 0,0 -1.10453,-16.23434 -1.73044,-17.22039 -0.6259,-0.98605 -3.78498,-2.70435 -3.78498,-2.70435 z"
         style="fill:#808080;fill-opacity:1;stroke:#ffffff;stroke-width:3.73567224;stroke-miterlimit:4;stroke-opacity:1;stroke-dasharray:none" />
      <path
         inkscape:transform-center-x="0.61342557"
         inkscape:transform-center-y="32.696177"
         sodipodi:nodetypes="ccczccczccczcc"
         inkscape:connector-curvature="0"
         id="rect6787-42-53-6-8"
         d="m 309.8028,347.41533 -0.22964,-5.1192 10.72082,-13.25918 c 0,0 3.91426,2.80237 5.4682,7.48269 1.55394,4.68032 -0.006,18.25067 -0.006,18.25067 l -2.40873,6.84 c 0.52267,8.94634 0.40256,17.91245 0.35519,26.88431 0,0 -1.07017,3.91176 -2.35239,4.21945 -1.28222,0.30769 -3.10179,-2.67298 -3.10179,-2.67298 l -0.68514,-22.02566 -2.66187,-1.17518 c 0,0 -1.10454,-16.23434 -1.73044,-17.22039 -0.62591,-0.98605 -3.36847,-2.20453 -3.36847,-2.20453 z"
         style="fill:#808080;fill-opacity:1;stroke:#ffffff;stroke-width:3.73567224;stroke-miterlimit:4;stroke-opacity:1;stroke-dasharray:none" />
      <path
         inkscape:transform-center-x="0.55755618"
         inkscape:transform-center-y="32.058089"
         sodipodi:nodetypes="ccczccczccczcc"
         inkscape:connector-curvature="0"
         id="rect6787-42-53-6-2-4"
         d="m 323.67633,329.38907 0.003,-4.85758 10.01899,-12.56113 c 0,0 3.32374,2.64649 4.73642,7.23547 1.4127,4.58898 -0.005,17.8945 -0.005,17.8945 l -2.18978,6.70651 c 0.47516,8.77174 0.36597,17.56287 0.3229,26.35964 0,0 -0.9729,3.83542 -2.13857,4.1371 -1.16567,0.30169 -2.81985,-2.62081 -2.81985,-2.62081 l -0.62288,-21.59581 -2.41993,-1.15225 c 0,0 -1.00413,-15.91752 -1.57315,-16.88432 -0.56901,-0.96681 -3.22891,-2.57802 -3.22891,-2.57802 z"
         style="fill:#808080;fill-opacity:1;stroke:#ffffff;stroke-width:3.73567224;stroke-miterlimit:4;stroke-opacity:1;stroke-dasharray:none" />
      <path
         sodipodi:nodetypes="csssssssscscsssccc"
         style="fill:#ffb629;fill-opacity:1;stroke:#ffb629;stroke-width:6.01299213;stroke-miterlimit:4;stroke-opacity:1;stroke-dasharray:none"
         d="m 185.70022,375.02506 c -1.00331,-2.19034 -3.12635,-5.2065 -4.71785,-6.70273 -5.62506,-5.28819 -5.07872,-16.44149 1.5909,-32.47666 3.46503,-8.33065 6.45682,-17.67887 6.64835,-20.7737 0.50802,-8.20662 6.33534,-6.77645 9.49494,2.33031 1.44142,4.1544 3.40798,7.60224 4.37017,7.6618 6.09562,0.37732 18.41016,-21.47381 19.26265,-34.18006 0.71601,-10.69376 3.50607,-11.19777 8.70289,-1.57316 3.29776,6.10763 3.5688,10.00838 1.93818,27.89071 -1.3859,15.19649 -1.20363,21.07902 0.67742,21.86384 1.63528,0.68206 2.69903,-0.95768 2.9183,-4.49937 0.42798,-6.91409 4.61961,-14.01853 7.19616,-12.19692 1.05701,0.74728 1.79856,3.34962 1.64794,5.7831 -0.15061,2.4334 1.71919,8.43241 4.15512,13.33117 6.39931,12.86924 7.05341,19.4611 2.79027,28.11801 -2.03261,4.12745 -0.59108,8.69404 -2.57285,8.97649 -16.41002,0.53792 -51.79423,0.29994 -64.15706,0.22322 z"
         id="path5003-5-6-0"
         inkscape:connector-curvature="0" />
      <path
         sodipodi:nodetypes="ssssssssscscssscssssssssssssssssssss"
         style="fill:#f14400;fill-opacity:1;stroke:#ffffff;stroke-opacity:1;stroke-width:6.01299213;stroke-miterlimit:4;stroke-dasharray:none"
         d="m 185.71142,375.02576 c -1.00331,-2.19034 -3.12635,-5.2065 -4.71785,-6.70273 -5.62506,-5.28819 -5.07872,-16.44149 1.5909,-32.47666 3.46503,-8.33065 6.45682,-17.67887 6.64835,-20.7737 0.50802,-8.20662 6.33534,-6.77645 9.49494,2.33031 1.44142,4.1544 3.40798,7.60224 4.37017,7.6618 6.09562,0.37732 18.41016,-21.47381 19.26265,-34.18006 0.71601,-10.69376 3.50608,-11.19777 8.70289,-1.57316 3.29775,6.10763 3.56879,10.00838 1.93817,27.89071 -1.3859,15.19649 -1.20363,21.07902 0.67743,21.86384 1.63528,0.68206 2.69903,-0.95768 2.91829,-4.49937 0.42798,-6.91409 4.61961,-14.01853 7.19616,-12.19692 1.05702,0.74728 1.79856,3.34962 1.64794,5.7831 -0.15061,2.4334 1.71919,8.43241 4.15512,13.33117 6.39932,12.86924 7.05341,19.4611 2.79027,28.11801 -2.03261,4.12745 -3.22052,8.04238 -2.63979,8.69983 1.71485,1.94099 19.34016,-6.0969 27.90316,-12.72504 4.3563,-3.372 10.76795,-11.14067 14.24817,-17.26362 9.07782,-15.97183 8.64245,-33.39368 -1.63348,-65.36804 -6.97318,-21.69762 -7.52405,-25.34673 -6.51627,-43.16706 0.60864,-10.70609 0.53294,-19.50103 -0.16128,-19.544 -0.69415,-0.043 -5.23573,2.4414 -10.09239,5.52089 -8.47151,5.37137 -18.71758,19.80742 -19.16269,26.99881 -0.77992,12.59931 -16.18488,-2.99181 -25.86315,-26.17572 -9.05696,-21.69519 -9.27888,-36.66136 -0.96745,-65.25022 0.9122,-3.13763 0.94999,-5.74856 0.0838,-5.80217 -3.83589,-0.23744 -16.36768,8.1651 -22.16154,14.85941 -15.91764,18.39112 -21.9994,43.66745 -16.84891,70.02438 2.46552,12.61652 2.29638,30.25941 -0.34541,36.04692 -2.39774,5.25271 -5.27058,3.50624 -4.87026,-2.9608 0.66536,-10.74851 -4.33638,-26.42552 -10.86398,-34.05147 -9.75458,-11.39571 -11.3912,-10.24667 -12.35745,8.67587 -0.72787,14.25095 -1.66967,17.6774 -6.99117,25.4367 -13.32457,19.42747 -18.69638,30.92686 -20.56871,44.0307 -3.25517,22.78208 7.09506,39.74258 32.94782,53.99066 14.77872,8.14491 22.97905,9.54549 20.18545,3.44763 z"
         id="path5003-5-6"
         inkscape:connector-curvature="0" />
      <path
         sodipodi:nodetypes="ccccc"
         inkscape:connector-curvature="0"
         id="rect3832"
         d="m 182.98437,497.11999 5,-5.8125 -1.25,13.25 -2.875,2.4375 z"
         style="fill:#ffffff;fill-opacity:1;stroke:none" />
    </g>
  </g>
</svg>
